<svg xmlns="http://www.w3.org/2000/svg" xmlns:xlink="http://www.w3.org/1999/xlink" width="1000" zoomAndPan="magnify" viewBox="0 0 750 749.999995" height="1000" preserveAspectRatio="xMidYMid meet"><g id="042644acce"><path style=" stroke:none;fill-rule:nonzero;fill:#648a6e;fill-opacity:1;" d="M 735.929688 480.933594 C 734.996094 479.625 733.660156 478.847656 732.078125 478.4375 C 725.960938 476.835938 719.839844 479.523438 713.777344 480.121094 C 688.246094 482.65625 666.757812 468.15625 649.082031 450.195312 C 641.851562 455.027344 634.011719 459.148438 626.855469 462.800781 C 643.574219 476.398438 661.480469 488.253906 682.0625 495.074219 C 693.195312 498.765625 705.925781 502.648438 717.941406 499.816406 C 725 498.152344 743.042969 490.894531 735.929688 480.933594 "></path><path style=" stroke:none;fill-rule:nonzero;fill:#648a6e;fill-opacity:1;" d="M 608.777344 436.304688 C 603.117188 436.304688 598.535156 431.722656 598.535156 426.0625 C 598.535156 420.410156 603.117188 415.824219 608.777344 415.824219 C 614.433594 415.824219 619.015625 420.410156 619.015625 426.0625 C 619.015625 431.722656 614.433594 436.304688 608.777344 436.304688 Z M 666.574219 416.761719 C 667.582031 410.503906 666.003906 403.621094 660.675781 396.054688 C 639.492188 365.980469 596.625 398.1875 574.40625 408.277344 C 407.398438 484.121094 224.0625 529.664062 43.929688 562.363281 C 41.359375 562.828125 38.988281 564.058594 37.144531 565.910156 C 25.363281 577.722656 16.070312 591.976562 9 607.328125 C 6.585938 612.5625 8.042969 618.792969 12.488281 622.464844 C 24.621094 632.488281 37.5 641.378906 51.46875 648.46875 C 53.726562 649.617188 56.273438 650.089844 58.785156 649.800781 C 227.847656 630.488281 391.367188 570.953125 543.566406 496.707031 C 566.640625 485.449219 589.488281 473.730469 612.078125 461.539062 C 628.664062 452.585938 663.09375 438.433594 666.574219 416.761719 "></path><path style=" stroke:none;fill-rule:nonzero;fill:#648a6e;fill-opacity:1;" d="M 145.8125 119.144531 C 159.042969 118.292969 172.359375 130.75 182.722656 137.519531 C 237.554688 173.335938 291.042969 211.238281 346.863281 245.535156 C 373.875 262.132812 401.464844 277.359375 429.625 291.652344 C 426.402344 292.195312 423.222656 293.011719 420.140625 294.109375 C 393.585938 280.511719 367.542969 266.058594 342.019531 250.378906 C 286.199219 216.078125 232.71875 178.179688 177.882812 142.363281 C 167.515625 135.585938 154.203125 123.132812 140.976562 123.992188 C 134.351562 124.414062 127.757812 127.527344 122.4375 131.976562 C 128.210938 125.054688 136.988281 119.714844 145.8125 119.144531 Z M 186.890625 209.476562 C 225.609375 233.0625 264.324219 256.652344 303.042969 280.242188 C 331.5625 297.609375 359.628906 316.929688 389.089844 332.664062 C 394.871094 335.746094 399.703125 335.542969 405.523438 332.824219 C 419.691406 326.210938 429.21875 310.023438 446.703125 312.464844 C 463.894531 314.863281 477.152344 329.851562 489.503906 340.695312 C 513.835938 362.054688 537.992188 383.601562 562.140625 405.160156 C 565.152344 403.8125 568.15625 402.464844 571.148438 401.109375 C 574.851562 399.429688 579.40625 396.957031 584.230469 394.34375 C 588.832031 391.851562 593.757812 389.183594 598.890625 386.667969 C 589.65625 374.632812 579.847656 363.101562 568.386719 353.273438 C 535.863281 325.382812 497.328125 305.949219 458.933594 287.542969 C 420.527344 269.132812 383.167969 249.296875 346.863281 226.988281 C 291.042969 192.6875 237.558594 154.789062 182.722656 118.972656 C 172.359375 112.199219 159.042969 99.75 145.8125 100.601562 C 135.335938 101.277344 124.933594 108.664062 119.535156 117.457031 C 91.472656 163.164062 157.585938 191.621094 186.890625 209.476562 "></path></g></svg>