<svg xmlns="http://www.w3.org/2000/svg" xmlns:xlink="http://www.w3.org/1999/xlink" width="1000" zoomAndPan="magnify" viewBox="0 0 750 749.999995" height="1000" preserveAspectRatio="xMidYMid meet"><defs><clipPath id="3625eec81b"><path d="M 0 17.8125 L 750 17.8125 L 750 732.5625 L 0 732.5625 Z M 0 17.8125 " clip-rule="nonzero"></path></clipPath></defs><g clip-path="url(#3625eec81b)"><path fill="#648a6e" d="M 17.855469 347.140625 C 18.078125 342.800781 28.351562 332.792969 14.445312 334.742188 L 3.949219 366.671875 C 7.226562 350.6875 0.273438 333.414062 0.320312 318.886719 C 0.496094 261.132812 33.933594 85.085938 60.109375 35.128906 C 63.339844 29.015625 66.21875 23.039062 71.890625 18.785156 C 104.484375 64.582031 58.734375 148.285156 112.191406 187.128906 C 119.808594 192.664062 133.449219 195.898438 138.808594 200.855469 C 145.097656 206.660156 152.449219 228.582031 163.210938 231.371094 C 168.792969 232.832031 209.804688 202.007812 222.25 196.78125 C 248.910156 185.535156 279.734375 179.554688 307.902344 186.597656 C 335.980469 193.59375 353.078125 216.800781 382.261719 214.277344 C 399.625 212.769531 411.9375 197.359375 429.210938 191.070312 C 464.507812 178.226562 499.761719 182.921875 533.640625 198.113281 C 545.246094 203.292969 582.714844 231.816406 587.761719 231.816406 C 598.921875 231.902344 606.585938 208.476562 614.070312 201.832031 C 619.960938 196.648438 629.480469 194.835938 636.480469 189.164062 C 685.109375 149.660156 659.332031 99.4375 666.417969 45.714844 C 667.082031 40.796875 675.144531 12.410156 683.515625 18.785156 C 726.386719 125.125 751.054688 247.714844 749.769531 363.128906 L 732.410156 334.742188 C 745.121094 413.089844 717.394531 488.070312 680.058594 554.855469 C 673.859375 555.699219 676.648438 546.839844 677.046875 542.898438 C 677.757812 535.546875 685.550781 516.855469 676.695312 512.292969 C 669.476562 543.695312 651.804688 574.964844 631.253906 599.144531 C 627.003906 604.148438 607.914062 625.804688 603.484375 622.308594 C 606.851562 615.222656 614.070312 605.523438 608.710938 597.503906 C 573.546875 652.824219 514.375 689.359375 453.613281 707.519531 C 451.488281 705.480469 467.5625 676.296875 455.382812 682.71875 C 450.15625 691.839844 442.363281 697.597656 433.769531 703.355469 C 417.339844 714.382812 399.046875 709.734375 415.257812 732.363281 C 371.722656 730.679688 324.734375 716.464844 295.015625 682.71875 L 298.558594 711.0625 C 237.128906 685.683594 180.527344 653.707031 141.6875 597.503906 L 145.1875 622.308594 C 112.5 593.164062 87.257812 555.875 77.160156 512.292969 C 71.226562 511.628906 73.351562 524.5625 73.570312 528.414062 C 74.015625 537.847656 76.183594 545.777344 77.203125 554.898438 C 58.648438 533.953125 44.472656 501.84375 35.351562 475.09375 C 31.320312 463.222656 17.988281 420.707031 17.988281 411.140625 C 17.988281 390.101562 16.882812 368.136719 17.988281 347.230469 Z M 303.695312 331.15625 L 446.613281 331.15625 C 442.054688 338.242188 431.46875 339.347656 423.984375 345.371094 C 401.441406 363.617188 410.121094 380.933594 437.84375 381.066406 C 473.230469 381.289062 506.980469 354.316406 530.1875 329.339844 C 530.1875 325 489.398438 317.558594 481.46875 315.121094 C 439.882812 302.367188 395.105469 276.589844 352.457031 286.6875 C 309.808594 296.785156 268.351562 323.492188 223.53125 324.023438 C 219.636719 327.433594 239.386719 346.125 242.621094 348.957031 C 260.824219 364.992188 314.058594 395.417969 335.230469 375.707031 C 345.546875 366.097656 341.074219 355.292969 331.421875 347.230469 C 323.667969 340.765625 309.1875 339.4375 303.695312 331.109375 Z M 303.695312 331.15625 " fill-opacity="1" fill-rule="nonzero"></path></g></svg>