<svg xmlns="http://www.w3.org/2000/svg" xmlns:xlink="http://www.w3.org/1999/xlink" width="1000" zoomAndPan="magnify" viewBox="0 0 750 749.999995" height="1000" preserveAspectRatio="xMidYMid meet"><g id="652461b7c9"><path style=" stroke:none;fill-rule:nonzero;fill-opacity:1;" d="M 251.277344 166.679688 C 253.503906 166.738281 256.339844 167.058594 259.800781 167.925781 C 291.292969 175.207031 322.179688 185.570312 375.609375 186.386719 C 429.136719 185.449219 459.386719 175.191406 490.925781 167.925781 C 500.253906 165.753906 504.578125 166.796875 506.855469 168.160156 C 509.140625 169.527344 511.230469 172.179688 513.207031 178.417969 C 527.585938 219.078125 524.632812 271.734375 562.90625 299.269531 C 564.945312 301.117188 567.539062 302.410156 570.492188 302.789062 C 582.960938 304.210938 588.707031 308.527344 592.15625 315.5 C 572.042969 332.988281 552.226562 361.269531 544.511719 411.164062 L 491.789062 476.699219 C 477.816406 495.457031 474.472656 515.945312 479.9375 531.90625 C 472.292969 538.453125 464.386719 544.441406 456.363281 549.882812 C 452.074219 552.480469 444.296875 556.699219 440.492188 559.761719 C 383.171875 589.792969 367.585938 589.769531 310.304688 559.761719 C 306.511719 556.722656 298.890625 552.585938 294.609375 550.046875 C 286.539062 544.558594 278.503906 538.511719 270.796875 531.964844 C 276.347656 515.921875 272.871094 495.539062 258.992188 476.699219 L 206.285156 411.164062 C 198.496094 361.269531 178.738281 332.988281 158.625 315.5 C 162.085938 308.527344 167.824219 304.210938 180.292969 302.789062 C 183.242188 302.46875 185.851562 301.117188 187.878906 299.269531 C 226.269531 271.757812 223.222656 219.113281 237.515625 178.417969 C 239.554688 172.167969 241.722656 169.515625 244 168.160156 C 245.421875 167.355469 247.589844 166.632812 251.347656 166.679688 Z M 375.375 29.644531 C 506.238281 29.3125 572.753906 106.242188 567.480469 221.105469 L 562.65625 257.839844 C 550.722656 230.695312 549.558594 202.488281 538.890625 170.082031 C 532.5625 146.628906 509.675781 134.6875 484.878906 141.730469 C 451.742188 149.402344 425.511719 158.59375 375.375 159.519531 C 325.25 158.605469 299.007812 149.402344 265.855469 141.730469 C 241.15625 134.675781 218.269531 146.710938 211.960938 170.082031 C 201.320312 202.488281 199.847656 230.636719 188.128906 257.839844 L 183.242188 221.28125 L 183.242188 221.09375 C 178.050781 106.195312 244.472656 29.347656 375.375 29.644531 Z M 375.375 2.71875 C 231.53125 0.988281 148.410156 94.90625 156.46875 222.941406 C 156.46875 223.261719 156.527344 223.617188 156.527344 223.9375 L 164.171875 281.980469 C 153.800781 286.117188 145.160156 292.238281 138.9375 299.660156 C 115.554688 283.070312 55.460938 221.566406 32.453125 199.667969 C 22.132812 189.550781 6.523438 207.765625 16.335938 217.394531 L 84.605469 284.222656 C 135.5 336.144531 173.121094 333.464844 185.484375 423.910156 L 240.183594 491.78125 C 254.015625 513.574219 252.804688 523.976562 244.449219 533.414062 C 244.011719 533.710938 243.644531 534.089844 243.265625 534.324219 L 243.207031 534.386719 C 243.207031 534.386719 243.207031 534.386719 243.160156 534.386719 C 240.503906 536.292969 237.601562 536.484375 234.445312 534.707031 C 234.578125 534.882812 234.742188 535.074219 234.875 535.191406 C 233.769531 534.632812 232.597656 533.828125 231.414062 532.726562 L 153.625 461.453125 C 148.941406 457.074219 139.246094 462.625 146.785156 469.90625 L 219.878906 540.433594 C 224.441406 544.878906 234.875 549.503906 243.265625 548.082031 L 291.613281 576.195312 C 308.394531 586.011719 310.683594 599.351562 310.136719 608.550781 C 309.757812 614.96875 305.195312 615.84375 300.191406 613 L 265.0625 593.113281 C 265.0625 593.054688 265.0625 593.054688 265.0625 592.984375 L 238.273438 577.792969 C 238.273438 577.792969 238.273438 577.855469 238.273438 577.925781 L 128.082031 515.496094 C 112.28125 506.542969 101.234375 492.648438 96.410156 476.273438 C 87.035156 444.601562 64.316406 395.632812 59.195312 385.199219 C 48.207031 362.847656 43.207031 354.558594 33.261719 346.105469 L -43.484375 282.976562 C -56.570312 272.160156 -71.019531 291.429688 -59.734375 300.761719 L 17.628906 364.683594 C 24.65625 370.480469 26.765625 374.183594 37.445312 395.929688 C 41.820312 404.832031 64.980469 455.167969 73.25 483.136719 C 79.851562 505.488281 95.214844 524.699219 116.144531 536.554688 L 238.074219 605.601562 C 237.671875 621.820312 238.40625 642.371094 236.710938 658.53125 L 77.992188 716.394531 C 61.445312 722.632812 70.429688 747.496094 87.132812 741.660156 C 87.132812 741.660156 228.128906 690.285156 228.128906 690.285156 C 225.722656 695.832031 222.640625 701.632812 218.871094 707.941406 C 210.90625 721.089844 227.703125 730.101562 236.710938 717.949219 C 262.75 682.765625 265.324219 655.757812 264.871094 620.800781 L 288.328125 634.082031 C 311.535156 649.117188 338.644531 627.203125 333.832031 600.785156 C 364.445312 612.097656 386.363281 612.0625 416.988281 600.785156 C 411.953125 627.273438 439.355469 649.09375 462.46875 634.082031 C 462.46875 634.082031 485.875 620.800781 485.875 620.800781 C 485.414062 655.757812 488.007812 682.777344 514.027344 717.949219 C 523.035156 730.101562 539.828125 721.089844 531.863281 707.941406 C 528.035156 701.632812 525 695.832031 522.535156 690.285156 L 663.59375 741.660156 C 680.292969 747.484375 689.277344 722.679688 672.730469 716.394531 C 672.730469 716.394531 514.015625 658.53125 514.015625 658.53125 C 512.285156 642.371094 513.054688 621.820312 512.652344 605.601562 L 634.636719 536.554688 C 655.558594 524.699219 670.941406 505.488281 677.542969 483.136719 C 685.804688 455.167969 708.894531 404.832031 713.339844 395.929688 C 724.019531 374.195312 726.058594 370.496094 733.097656 364.683594 L 810.460938 300.761719 C 821.824219 291.429688 807.378906 272.160156 794.292969 282.976562 L 717.488281 346.09375 C 707.613281 354.546875 702.613281 362.835938 691.566406 385.183594 C 686.433594 395.621094 663.722656 444.601562 654.394531 476.261719 C 649.570312 492.636719 638.527344 506.53125 622.667969 515.484375 L 512.425781 577.914062 C 512.425781 577.855469 512.425781 577.855469 512.425781 577.78125 L 485.6875 593.042969 C 485.6875 593.042969 485.6875 593.042969 485.6875 593.101562 L 450.566406 612.988281 C 445.625 615.832031 440.988281 614.96875 440.621094 608.539062 C 440.054688 599.339844 442.414062 586 459.195312 576.183594 L 507.472656 548.070312 C 515.863281 549.492188 526.304688 544.855469 530.878906 540.421875 L 603.976562 469.894531 C 611.5625 462.601562 601.878906 457.050781 597.113281 461.4375 L 519.394531 532.714844 C 518.222656 533.816406 517.058594 534.621094 515.933594 535.179688 C 516.0625 534.988281 516.253906 534.859375 516.371094 534.695312 C 513.824219 536.175781 511.429688 536.292969 509.203125 535.371094 C 509.203125 535.308594 509.203125 535.371094 509.203125 535.371094 C 509.15625 535.308594 509.15625 535.308594 509.09375 535.308594 C 508.714844 535.121094 508.289062 534.871094 507.910156 534.632812 C 507.484375 534.3125 507.054688 534.019531 506.675781 533.636719 C 505.386719 532.535156 504.210938 531.113281 503.109375 529.320312 C 499.164062 523.261719 497.800781 510.304688 510.566406 491.839844 L 565.265625 423.910156 C 565.941406 422.972656 566.390625 421.871094 566.496094 420.699219 C 578.398438 330.394531 616.691406 336.6875 666.140625 284.28125 C 666.140625 284.28125 734.472656 217.394531 734.472656 217.394531 C 744.285156 207.824219 728.605469 189.550781 718.304688 199.667969 C 695.050781 221.875 635.492188 282.84375 611.878906 299.707031 C 605.632812 292.308594 596.933594 286.128906 586.621094 281.980469 L 594.207031 223.9375 C 594.269531 223.617188 594.339844 223.261719 594.339844 222.941406 C 602.316406 94.882812 519.3125 1.023438 375.375 2.71875 Z M 375.375 2.71875 "></path><path style=" stroke:none;fill-rule:nonzero;fill-opacity:1;" d="M 337.03125 505.359375 C 335.359375 505.417969 334.1875 506.164062 333.441406 507.339844 C 329.96875 523.039062 356.753906 534.964844 371.546875 534.265625 C 386.324219 535 413.183594 522.964844 409.640625 507.339844 C 408.027344 504.683594 403.84375 504.316406 397.726562 508.632812 C 383.539062 518.296875 359.585938 518.332031 345.433594 508.632812 C 341.960938 506.222656 339.128906 505.226562 337.03125 505.359375 Z M 337.03125 505.359375 "></path><path style=" stroke:none;fill-rule:nonzero;fill-opacity:1;" d="M 347.839844 468.992188 C 334.933594 469.253906 328.390625 480.765625 312.222656 477.199219 C 298.664062 474.328125 298.203125 492.007812 309.628906 493.371094 C 323.269531 496.535156 331.851562 494.925781 344.804688 490.15625 C 349.867188 488.308594 352.710938 490.773438 356.042969 493.429688 C 359.445312 496.144531 364.566406 499.929688 371.546875 499.929688 C 378.515625 499.929688 383.636719 496.144531 387.035156 493.429688 C 390.367188 490.726562 393.210938 488.308594 398.273438 490.15625 C 411.226562 494.914062 419.808594 496.523438 433.464844 493.371094 C 444.820312 492.019531 444.476562 474.328125 430.855469 477.199219 C 416.785156 480.222656 410.246094 472.207031 400.242188 469.65625 C 398.390625 469.230469 396.71875 468.992188 395.25 468.992188 C 385.957031 468.410156 378.691406 478.171875 371.546875 479.605469 C 364.375 478.183594 357.132812 468.421875 347.839844 468.992188 Z M 347.839844 468.992188 "></path><path style=" stroke:none;fill-rule:nonzero;fill-opacity:1;" d="M 400.050781 263.898438 C 371.59375 291.691406 364.433594 339.867188 384.25 393.582031 C 390.984375 411.984375 386.539062 424.160156 371.78125 423.839844 C 359.503906 423.589844 360.121094 438.164062 371.414062 440.761719 C 404.425781 447.257812 416.800781 412.007812 405.125 385.683594 C 370.242188 302.019531 431.710938 228.492188 504.757812 274.140625 C 516.929688 282.488281 524.148438 268.214844 515.316406 259.757812 C 483.292969 228.03125 427.65625 232.535156 400.050781 263.898438 Z M 400.050781 263.898438 "></path><path style=" stroke:none;fill-rule:nonzero;fill-opacity:1;" d="M 235.109375 258.953125 C 226.46875 267.109375 235.347656 280.140625 243.5625 274.140625 C 271.960938 253.464844 306.15625 255.738281 329.742188 277.175781 C 334.304688 281.257812 341.34375 280.878906 345.480469 276.371094 C 349.691406 271.804688 349.308594 264.703125 344.734375 260.496094 C 314.15625 232.476562 265.679688 228.847656 235.109375 258.953125 Z M 235.109375 258.953125 "></path><path style=" stroke:none;fill-rule:nonzero;fill-opacity:1;" d="M 234.671875 331.898438 C 227.085938 324.738281 234.863281 313.246094 242.078125 318.488281 C 267.078125 336.761719 297.160156 334.660156 317.890625 315.890625 C 321.90625 312.238281 328.128906 312.558594 331.78125 316.566406 C 335.417969 320.585938 335.183594 326.8125 331.164062 330.523438 C 304.1875 355.078125 261.589844 358.328125 234.730469 331.886719 L 234.671875 331.886719 Z M 234.671875 331.898438 "></path><path style=" stroke:none;fill-rule:nonzero;fill-opacity:1;" d="M 508.40625 331.898438 C 515.992188 324.738281 508.21875 313.246094 501 318.488281 C 476.003906 336.761719 445.945312 334.722656 425.191406 315.890625 C 421.171875 312.238281 415.007812 312.558594 411.300781 316.566406 C 407.660156 320.585938 407.898438 326.8125 411.914062 330.523438 C 438.929688 355.117188 481.453125 358.316406 508.40625 331.898438 Z M 508.40625 331.898438 "></path></g></svg>