<svg xmlns="http://www.w3.org/2000/svg" xmlns:xlink="http://www.w3.org/1999/xlink" width="1000" zoomAndPan="magnify" viewBox="0 0 750 749.999995" height="1000" preserveAspectRatio="xMidYMid meet"><g id="80d6679eec"><path style=" stroke:none;fill-rule:nonzero;fill-opacity:1;" d="M 405.902344 229.355469 C 413.683594 257.613281 406.878906 287.882812 387.152344 309.5625 L 4.601562 732.40625 C 0.480469 736.9375 -0.0507812 743.164062 3.390625 746.605469 C 6.835938 750.050781 13.0625 749.519531 17.59375 745.394531 L 440.4375 362.84375 C 462.117188 343.117188 492.386719 336.3125 520.644531 344.097656 C 573.328125 358.601562 631.820312 346.429688 674.746094 307.570312 C 678.097656 304.539062 678.246094 299.324219 675.050781 296.128906 L 668.925781 290.007812 L 750 214.675781 L 735.160156 199.835938 L 659.828125 280.910156 L 646.722656 267.804688 L 727.796875 192.472656 L 712.957031 177.632812 L 637.625 258.703125 L 624.519531 245.597656 L 705.589844 170.265625 L 690.753906 155.429688 L 615.421875 236.5 L 602.316406 223.394531 L 683.386719 148.0625 L 668.546875 133.222656 L 593.214844 214.296875 L 580.109375 201.191406 L 661.183594 125.859375 L 646.34375 111.019531 L 571.011719 192.09375 L 557.90625 178.988281 L 638.980469 103.65625 L 624.140625 88.816406 L 548.808594 169.886719 L 535.703125 156.78125 L 616.773438 81.449219 L 601.9375 66.613281 L 526.605469 147.683594 L 513.5 134.578125 L 594.570312 59.246094 L 579.734375 44.410156 L 504.402344 125.480469 L 491.296875 112.375 L 572.367188 37.042969 L 557.527344 22.203125 L 482.195312 103.277344 L 469.089844 90.171875 L 550.164062 14.839844 L 535.324219 0 L 459.992188 81.070312 L 453.871094 74.949219 C 450.675781 71.753906 445.460938 71.902344 442.425781 75.25 C 403.570312 118.179688 391.394531 176.671875 405.902344 229.355469 Z M 405.902344 229.355469 "></path></g></svg>