<svg xmlns="http://www.w3.org/2000/svg" xmlns:xlink="http://www.w3.org/1999/xlink" width="1000" zoomAndPan="magnify" viewBox="0 0 750 749.999995" height="1000" preserveAspectRatio="xMidYMid meet"><defs><clipPath id="b1400b45f5"><path d="M 370 204 L 714.375 204 L 714.375 435 L 370 435 Z M 370 204 "></path></clipPath></defs><g id="9aac1e3d07"><path style=" stroke:none;fill-rule:nonzero;fill-opacity:1;" d="M 139.757812 536.035156 C 112.730469 548.4375 82.519531 540.394531 72.269531 518.066406 C 62.015625 495.730469 75.625 467.582031 102.648438 455.171875 C 129.667969 442.773438 159.886719 450.824219 170.136719 473.152344 C 180.382812 495.480469 166.78125 523.636719 139.757812 536.035156 Z M 304.976562 430.4375 L 279.832031 403.640625 L 182.105469 448.488281 C 162.445312 427.710938 126.816406 422.199219 94.355469 437.097656 C 55.246094 455.046875 35.5625 495.789062 50.390625 528.105469 C 65.21875 560.414062 108.941406 572.058594 148.050781 554.109375 C 180.511719 539.210938 199.574219 508.605469 196.636719 480.15625 L 304.976562 430.4375 "></path><g clip-rule="nonzero" clip-path="url(#b1400b45f5)"><path style=" stroke:none;fill-rule:nonzero;fill-opacity:1;" d="M 393.339844 351.546875 L 370.910156 434.984375 L 700.824219 219.304688 L 714.285156 204.265625 L 393.339844 351.546875 "></path></g><path style=" stroke:none;fill-rule:nonzero;fill-opacity:1;" d="M 327.195312 644.917969 C 319.472656 673.636719 293.980469 691.742188 270.253906 685.367188 C 246.527344 678.988281 233.558594 650.535156 241.269531 621.820312 C 248.992188 593.101562 274.488281 575 298.210938 581.375 C 321.9375 587.75 334.914062 616.207031 327.195312 644.917969 Z M 326.910156 390.09375 C 329.277344 387.285156 333.476562 386.933594 336.28125 389.304688 C 339.089844 391.679688 339.441406 395.878906 337.074219 398.675781 C 334.695312 401.484375 330.507812 401.835938 327.699219 399.46875 C 324.890625 397.097656 324.539062 392.902344 326.910156 390.09375 Z M 320.527344 565.464844 L 368.261719 387.914062 L 472.554688 0 L 459.964844 15.777344 L 293.714844 396.835938 L 321.753906 426.714844 L 286.886719 556.421875 C 258.34375 558.269531 231.34375 582.164062 222.070312 616.660156 C 210.898438 658.210938 229.675781 699.382812 264.007812 708.609375 C 275.152344 711.605469 286.566406 710.847656 297.285156 707.066406 C 301.574219 720.855469 308.558594 731.878906 318.164062 740.003906 C 321.644531 742.941406 325.46875 745.503906 329.628906 747.679688 C 333.972656 749.949219 339.332031 748.265625 341.597656 743.929688 C 343.863281 739.585938 342.183594 734.226562 337.847656 731.960938 C 325.617188 725.570312 317.574219 714.683594 313.339844 698.761719 C 328.503906 688.195312 340.742188 671.117188 346.394531 650.082031 C 355.671875 615.585938 344.296875 581.375 320.527344 565.464844 "></path><path style=" stroke:none;fill-rule:nonzero;fill-opacity:1;" d="M 301.238281 448.21875 L 305.035156 452.628906 L 308.675781 439.101562 L 306.546875 440.074219 L 301.3125 444.578125 C 300.296875 445.449219 300.265625 447.078125 301.238281 448.21875 "></path><path style=" stroke:none;fill-rule:nonzero;fill-opacity:1;" d="M 363.796875 450.894531 L 360.503906 453.046875 L 360.265625 453.921875 Z M 363.796875 450.894531 "></path><path style=" stroke:none;fill-rule:nonzero;fill-opacity:1;" d="M 261.363281 401.753906 L 282.0625 392.257812 L 284.363281 394.707031 L 295.257812 369.730469 L 261.742188 398.554688 C 260.851562 399.320312 260.71875 400.667969 261.363281 401.753906 "></path><path style=" stroke:none;fill-rule:nonzero;fill-opacity:1;" d="M 453.820312 392.039062 L 414.382812 417.820312 L 419.121094 423.339844 L 353.265625 479.949219 L 347.382812 501.847656 C 348.367188 502.785156 349.832031 502.921875 350.773438 502.113281 L 429.015625 434.847656 L 438.90625 446.347656 L 360.667969 513.613281 C 359.652344 514.492188 359.621094 516.121094 360.59375 517.253906 L 366.953125 524.644531 C 367.925781 525.785156 369.542969 526 370.558594 525.121094 L 448.796875 457.855469 L 458.691406 469.363281 L 380.453125 536.628906 C 379.433594 537.5 379.40625 539.128906 380.378906 540.269531 L 386.738281 547.664062 C 387.710938 548.796875 389.328125 549.007812 390.34375 548.136719 L 468.582031 480.871094 L 478.476562 492.375 L 400.234375 559.636719 C 399.21875 560.515625 399.191406 562.144531 400.171875 563.28125 L 406.515625 570.671875 C 407.496094 571.8125 409.113281 572.023438 410.128906 571.144531 L 488.367188 503.882812 L 498.261719 515.390625 L 420.019531 582.65625 C 419.003906 583.53125 418.976562 585.15625 419.949219 586.296875 L 426.308594 593.6875 C 427.28125 594.820312 428.898438 595.03125 429.914062 594.164062 L 508.152344 526.898438 L 518.046875 538.40625 L 439.804688 605.671875 C 438.789062 606.542969 438.761719 608.171875 439.730469 609.304688 L 446.09375 616.695312 C 447.066406 617.835938 448.679688 618.050781 449.699219 617.171875 L 527.9375 549.90625 L 537.828125 561.414062 L 459.589844 628.679688 C 458.574219 629.558594 458.542969 631.1875 459.523438 632.320312 L 465.878906 639.714844 C 466.851562 640.847656 468.472656 641.058594 469.488281 640.1875 L 547.730469 572.921875 L 557.621094 584.429688 L 479.375 651.695312 C 478.359375 652.566406 478.328125 654.195312 479.308594 655.335938 L 485.664062 662.722656 C 486.640625 663.863281 488.25 664.074219 489.265625 663.199219 L 567.515625 595.933594 L 577.398438 607.441406 L 499.160156 674.707031 C 498.144531 675.582031 498.113281 677.214844 499.09375 678.347656 L 505.449219 685.738281 C 506.417969 686.871094 508.042969 687.089844 509.050781 686.214844 L 587.292969 618.949219 L 597.191406 630.457031 L 519.75 697.027344 C 518.292969 698.285156 518.25 700.625 519.652344 702.261719 L 530.78125 715.203125 C 534.304688 719.304688 540.132812 720.074219 543.804688 716.921875 L 623.207031 648.65625 C 639.472656 634.667969 639.984375 608.574219 624.339844 590.382812 L 453.820312 392.039062 "></path><path style=" stroke:none;fill-rule:nonzero;fill-opacity:1;" d="M 405.363281 335.675781 L 395.226562 323.890625 L 390.191406 342.636719 Z M 405.363281 335.675781 "></path><path style=" stroke:none;fill-rule:nonzero;fill-opacity:1;" d="M 69.402344 178.550781 C 70.804688 180.183594 73.121094 180.488281 74.585938 179.230469 L 152.019531 112.660156 L 161.921875 124.171875 L 83.671875 191.433594 C 82.65625 192.304688 82.628906 193.933594 83.609375 195.074219 L 89.960938 202.460938 C 90.933594 203.601562 92.550781 203.8125 93.566406 202.941406 L 171.8125 135.671875 L 181.703125 147.179688 L 103.457031 214.445312 C 102.441406 215.320312 102.414062 216.953125 103.390625 218.085938 L 109.746094 225.476562 C 110.71875 226.609375 112.335938 226.828125 113.351562 225.953125 L 191.589844 158.6875 L 201.480469 170.195312 L 123.242188 237.460938 C 122.234375 238.332031 122.199219 239.960938 123.175781 241.101562 L 129.53125 248.492188 C 130.503906 249.625 132.125 249.839844 133.140625 248.96875 L 211.375 181.695312 L 221.273438 193.203125 L 143.035156 260.46875 C 142.019531 261.347656 141.980469 262.976562 142.960938 264.109375 L 149.316406 271.503906 C 150.296875 272.644531 151.910156 272.855469 152.925781 271.976562 L 231.167969 204.710938 L 241.058594 216.222656 L 162.8125 283.484375 C 161.796875 284.355469 161.765625 285.988281 162.746094 287.125 L 169.101562 294.519531 C 170.074219 295.652344 171.6875 295.863281 172.703125 294.992188 L 250.953125 227.730469 L 260.84375 239.230469 L 182.597656 306.496094 C 181.582031 307.371094 181.550781 309.003906 182.53125 310.136719 L 188.886719 317.527344 C 189.855469 318.667969 191.480469 318.878906 192.496094 318.003906 L 270.734375 250.738281 L 280.628906 262.246094 L 202.390625 329.511719 C 201.371094 330.386719 201.335938 332.011719 202.316406 333.152344 L 208.667969 340.542969 C 209.648438 341.675781 211.265625 341.890625 212.28125 341.019531 L 290.519531 273.753906 L 300.414062 285.253906 L 222.171875 352.527344 C 221.15625 353.398438 221.121094 355.027344 222.101562 356.160156 L 228.453125 363.554688 C 229.433594 364.695312 231.050781 364.90625 232.066406 364.027344 L 310.304688 296.761719 L 320.199219 308.273438 L 241.957031 375.535156 C 240.941406 376.414062 240.914062 378.042969 241.886719 379.179688 L 248.238281 386.570312 C 249.21875 387.703125 250.835938 387.914062 251.851562 387.042969 L 309.230469 337.707031 L 342.183594 262.1875 L 195.664062 91.757812 C 180.015625 73.566406 154.148438 70.152344 137.878906 84.140625 L 58.472656 152.414062 C 54.808594 155.566406 54.691406 161.445312 58.214844 165.539062 L 69.402344 178.550781 "></path></g></svg>