<svg xmlns="http://www.w3.org/2000/svg" xmlns:xlink="http://www.w3.org/1999/xlink" width="1000" zoomAndPan="magnify" viewBox="0 0 750 749.999995" height="1000" preserveAspectRatio="xMidYMid meet"><defs><clipPath id="42e2ac1d44"><path d="M 11 310 L 506 310 L 506 716.152344 L 11 716.152344 Z M 11 310 " clip-rule="nonzero"></path></clipPath><clipPath id="667a37052f"><path d="M 378 208 L 736 208 L 736 716.152344 L 378 716.152344 Z M 378 208 " clip-rule="nonzero"></path></clipPath></defs><path fill="#648a6e" d="M 545.175781 34.050781 C 593.589844 34.050781 632.667969 73.035156 632.667969 121.441406 C 628.332031 237.351562 462.125 237.476562 457.828125 121.441406 C 457.835938 73.035156 496.824219 34.050781 545.175781 34.050781 Z M 545.175781 34.050781 " fill-opacity="1" fill-rule="nonzero"></path><path fill="#648a6e" d="M 275.757812 226.863281 C 233.34375 226.863281 198.550781 258.550781 193.636719 299.554688 L 285.722656 391.628906 C 387.738281 376.460938 379.480469 229.925781 275.757812 226.863281 Z M 275.757812 226.863281 " fill-opacity="1" fill-rule="nonzero"></path><g clip-path="url(#42e2ac1d44)"><path fill="#648a6e" d="M 80.226562 577.082031 L 239.816406 627.445312 C 241.613281 627.988281 243.675781 628.480469 245.964844 628.917969 C 248.503906 642.269531 235.875 654.363281 222 649.660156 C 222 649.660156 62.632812 598.421875 62.632812 598.421875 C 52.554688 595.160156 47.160156 586.660156 48.902344 580.242188 C 56.921875 578.820312 72.636719 573.625 80.226562 577.082031 Z M 368.050781 463.660156 C 370.824219 463.609375 373.113281 466.660156 371.105469 471.941406 L 345.179688 541.359375 C 345.230469 541.695312 345.34375 542.019531 345.398438 542.289062 L 345.34375 542.34375 L 364.625 690.339844 C 351.828125 690.339844 339.574219 682.65625 338.265625 674.773438 L 319.105469 559.175781 L 363.265625 467.539062 C 364.507812 464.96875 366.359375 463.777344 368.050781 463.660156 Z M 183.027344 341.089844 L 298.832031 457.292969 L 283.265625 488.449219 C 280.160156 487.519531 276.949219 485.722656 274.179688 482.941406 L 157.328125 366.632812 C 138.617188 347.9375 166.914062 324.226562 183.027344 341.089844 Z M 140.070312 323.726562 C 123.625 339.953125 124.050781 367.019531 140.613281 383.453125 C 147.144531 388.304688 267.386719 514.199219 272.496094 509.902344 L 250.050781 554.492188 C 248.472656 557.636719 245.042969 559.34375 241.613281 558.746094 L 92.855469 530.757812 C 77.769531 528.082031 73.691406 526.566406 61.921875 532.066406 L 31.925781 546.160156 C 24.566406 549.640625 22.445312 550.675781 20.214844 559.445312 L 11.769531 592.558594 C 9.480469 601.433594 24.679688 605.898438 29.960938 599.800781 C 35.136719 609.660156 44.179688 617.542969 55.554688 621.035156 L 214.828125 672.273438 C 238.625 679.957031 261.65625 663.667969 268.074219 644.882812 C 269.707031 639.601562 270.199219 634.21875 269.707031 629.042969 C 280.441406 626.15625 290.238281 618.914062 294.210938 610.683594 L 304.121094 590.152344 L 314.578125 674.78125 C 318.769531 708.863281 346.277344 716.433594 375.789062 717.144531 L 505.875 717.195312 C 507.515625 625.824219 483 378.707031 370.886719 381.71875 C 335.433594 382.011719 322.417969 409.882812 310.175781 434.753906 L 199.796875 324.375 C 181.980469 306.582031 158.519531 305.585938 140.070312 323.726562 Z M 140.070312 323.726562 " fill-opacity="1" fill-rule="nonzero"></path></g><g clip-path="url(#667a37052f)"><path fill="#648a6e" d="M 707.167969 287.40625 C 721.054688 322.910156 724.597656 367.5 731.84375 413.835938 C 740.113281 466.597656 733.472656 502.375 715.398438 546.097656 C 704.453125 572.566406 704.066406 594.886719 704.066406 624.078125 L 704.066406 717.195312 L 593.097656 717.195312 L 593.097656 440.691406 C 621.597656 448.042969 648.289062 433.039062 649.175781 402.25 L 651.144531 283.488281 C 651.300781 274.734375 639.695312 274.402344 639.320312 282.734375 L 633.433594 401.488281 C 632.011719 420.945312 621.117188 428.574219 601.847656 426.109375 L 461.707031 413.3125 C 453.476562 412.550781 449.234375 409.832031 444.988281 404.375 C 429.347656 384.457031 410.78125 373.175781 387.488281 371.210938 C 380.953125 370.617188 378.382812 364.40625 378.777344 359.292969 C 379.101562 354.179688 382.15625 348.722656 393.207031 346.664062 C 423.691406 340.988281 438.945312 347.636719 452.390625 356.40625 C 465.84375 365.117188 477.441406 379.230469 497.144531 379.773438 C 523 380.484375 544.347656 378.6875 570.277344 378.144531 C 575.167969 378.464844 579.195312 374.265625 578.652344 369.371094 L 568.53125 268.914062 C 563.25 216.355469 622.488281 198.5625 654.625 214.558594 C 675.261719 224.835938 693.285156 252.121094 707.167969 287.40625 Z M 707.167969 287.40625 " fill-opacity="1" fill-rule="nonzero"></path></g></svg>