<svg xmlns="http://www.w3.org/2000/svg" xmlns:xlink="http://www.w3.org/1999/xlink" width="1000" zoomAndPan="magnify" viewBox="0 0 750 749.999995" height="1000" preserveAspectRatio="xMidYMid meet"><g id="ac9a8fe34e"><path style=" stroke:none;fill-rule:nonzero;fill-opacity:1;" d="M 151.078125 750 C 145.949219 750 141.355469 746.113281 140.648438 740.988281 C 139.761719 735.15625 143.828125 729.855469 149.664062 728.96875 C 165.578125 726.671875 179.722656 721.195312 191.746094 712.890625 C 229.9375 686.203125 246.378906 628.417969 234.003906 565.503906 C 232.941406 559.671875 236.65625 554.195312 242.3125 553.132812 C 248.148438 552.074219 253.628906 555.785156 254.691406 561.441406 C 261.585938 595.898438 260.523438 629.832031 252.039062 659.34375 C 243.199219 689.914062 226.398438 714.480469 203.769531 730.382812 C 189.09375 740.632812 171.941406 747.347656 152.667969 750 C 152.140625 750 151.609375 750 151.078125 750 Z M 151.078125 750 "></path><path style=" stroke:none;fill-rule:nonzero;fill-opacity:1;" d="M 181.136719 449.398438 C 180.429688 449.398438 179.722656 449.398438 179.015625 449.222656 C 166.636719 446.75 155.851562 441.800781 147.1875 434.554688 C 112.886719 406.457031 108.289062 344.957031 135.519531 277.980469 C 137.640625 272.503906 143.828125 270.027344 149.308594 272.148438 C 154.792969 274.269531 157.265625 280.453125 155.144531 285.933594 C 131.804688 343.191406 133.925781 396.382812 160.625 418.121094 C 166.636719 423.066406 174.242188 426.425781 183.257812 428.371094 C 188.917969 429.605469 192.628906 435.085938 191.570312 440.917969 C 190.507812 446.042969 186.085938 449.398438 181.136719 449.398438 Z M 181.136719 449.398438 "></path><path style=" stroke:none;fill-rule:nonzero;fill-opacity:1;" d="M 280.328125 394.792969 C 255.21875 394.792969 236.300781 381.363281 230.289062 376.589844 C 225.691406 372.878906 224.984375 366.339844 228.699219 361.746094 C 232.410156 357.152344 238.953125 356.445312 243.550781 360.15625 C 247.265625 363.160156 267.421875 378.003906 291.289062 372.527344 C 299.421875 370.582031 307.203125 366.515625 313.921875 360.507812 C 318.34375 356.621094 325.0625 356.976562 328.949219 361.394531 C 332.839844 365.8125 332.488281 372.527344 328.066406 376.414062 C 318.871094 384.71875 307.734375 390.550781 296.0625 393.203125 C 290.761719 394.261719 285.457031 394.792969 280.328125 394.792969 Z M 280.328125 394.792969 "></path><path style=" stroke:none;fill-rule:nonzero;fill-opacity:1;" d="M 372.09375 484.214844 C 366.789062 484.214844 361.484375 483.328125 356.355469 481.738281 C 348.578125 479.265625 341.503906 474.671875 335.847656 468.839844 C 331.78125 464.597656 331.78125 457.882812 336.023438 453.816406 C 340.265625 449.753906 346.984375 449.753906 351.050781 453.992188 C 353.351562 456.46875 357.417969 459.648438 363.074219 461.59375 C 366.789062 462.828125 370.503906 463.183594 374.390625 463.007812 C 380.226562 462.652344 385.355469 467.070312 385.707031 472.902344 C 386.0625 478.734375 381.640625 483.859375 375.804688 484.214844 C 374.570312 484.214844 373.332031 484.214844 372.09375 484.214844 Z M 372.09375 484.214844 "></path><path style=" stroke:none;fill-rule:nonzero;fill-opacity:1;" d="M 369.441406 541.46875 C 364.492188 541.46875 359.539062 540.941406 354.765625 539.703125 C 346.457031 537.757812 338.675781 534.226562 331.601562 529.101562 C 326.828125 525.742188 325.769531 519.027344 329.128906 514.253906 C 332.488281 509.484375 339.207031 508.421875 343.980469 511.78125 C 348.753906 515.140625 353.882812 517.613281 359.539062 518.851562 C 364.3125 519.910156 369.085938 520.265625 374.039062 519.734375 C 379.871094 519.203125 385.175781 523.269531 385.707031 529.101562 C 386.414062 534.933594 382.171875 540.234375 376.335938 540.761719 C 373.863281 541.46875 371.5625 541.46875 369.441406 541.46875 Z M 369.441406 541.46875 "></path><path style=" stroke:none;fill-rule:nonzero;fill-opacity:1;" d="M 186.085938 320.921875 C 178.128906 320.921875 170.351562 318.097656 164.339844 312.792969 L 125.085938 278.15625 C 101.925781 257.65625 85.835938 230.796875 78.9375 200.753906 L 55.246094 97.726562 L 18.292969 56.550781 C 14.402344 52.132812 14.757812 45.417969 19.175781 41.527344 C 23.597656 37.640625 30.316406 37.996094 34.207031 42.414062 L 72.75 85.53125 C 73.988281 86.945312 74.695312 88.535156 75.226562 90.304688 L 99.449219 195.984375 C 105.460938 221.785156 119.074219 244.757812 138.878906 262.253906 L 178.128906 296.890625 C 180.605469 299.011719 183.613281 300.070312 186.972656 299.71875 C 190.152344 299.363281 193.160156 297.773438 195.105469 295.300781 C 198.109375 291.234375 198.289062 285.757812 195.457031 281.691406 L 146.128906 210.828125 C 143.121094 206.410156 143.828125 200.402344 147.71875 196.867188 C 151.609375 193.332031 157.621094 193.15625 161.6875 196.691406 L 250.625 273.5625 C 253.277344 275.859375 256.8125 276.921875 260.347656 276.566406 C 263.882812 276.214844 267.066406 274.445312 269.1875 271.617188 C 273.078125 266.492188 272.371094 259.425781 267.949219 254.832031 L 184.847656 173.714844 C 180.605469 169.652344 180.605469 162.9375 184.671875 158.695312 C 188.738281 154.453125 195.457031 154.453125 199.703125 158.519531 L 282.804688 239.632812 C 295.003906 251.472656 296.417969 270.734375 286.164062 284.164062 C 280.503906 291.589844 272.019531 296.535156 262.648438 297.597656 C 253.277344 298.65625 243.90625 295.652344 236.832031 289.46875 L 211.902344 267.90625 L 212.960938 269.320312 C 221.097656 280.984375 220.742188 296.535156 212.078125 307.847656 C 206.597656 315.09375 198.289062 319.6875 189.269531 320.570312 C 188.207031 320.921875 187.148438 320.921875 186.085938 320.921875 Z M 186.085938 320.921875 "></path><path style=" stroke:none;fill-rule:nonzero;fill-opacity:1;" d="M 294.472656 263.84375 C 285.808594 263.84375 277.320312 260.839844 270.601562 255.183594 L 255.574219 242.636719 C 251.152344 238.925781 250.445312 232.210938 254.160156 227.617188 C 257.871094 223.199219 264.589844 222.492188 269.1875 226.203125 L 284.21875 238.75 C 287.929688 241.753906 292.703125 242.988281 297.300781 242.285156 C 301.898438 241.398438 305.964844 238.570312 308.441406 234.507812 C 311.976562 228.5 311.09375 220.898438 306.496094 215.597656 L 233.648438 135.898438 C 229.9375 131.65625 229.9375 125.292969 234.003906 121.230469 C 237.894531 117.164062 244.433594 116.988281 248.679688 120.699219 L 316.042969 180.429688 C 321.878906 185.554688 330.894531 185.203125 336.199219 179.371094 C 340.972656 174.070312 341.152344 165.941406 336.378906 160.460938 L 260.171875 72.632812 C 242.488281 52.132812 216.851562 39.410156 189.800781 37.996094 L 177.953125 37.289062 C 168.757812 36.757812 159.742188 34.636719 151.078125 31.101562 L 129.332031 22.089844 C 123.847656 19.792969 121.375 13.609375 123.671875 8.304688 C 125.972656 2.828125 132.160156 0.351562 137.464844 2.652344 L 159.210938 11.664062 C 165.578125 14.3125 172.296875 15.90625 179.191406 16.257812 L 191.039062 16.964844 C 223.75 18.730469 254.867188 34.105469 276.261719 59.023438 L 352.113281 147.03125 C 363.78125 160.460938 363.605469 180.785156 351.582031 194.039062 C 344.511719 201.8125 334.609375 205.878906 324.882812 205.703125 C 333.019531 217.367188 333.902344 232.917969 326.476562 245.640625 C 320.996094 255.183594 311.625 261.722656 300.660156 263.667969 C 298.894531 263.667969 296.59375 263.84375 294.472656 263.84375 Z M 294.472656 263.84375 "></path><path style=" stroke:none;fill-rule:nonzero;fill-opacity:1;" d="M 310.03125 124.765625 C 305.257812 124.765625 301.015625 121.582031 299.777344 116.8125 C 298.1875 111.15625 301.722656 105.324219 307.378906 103.910156 C 318.34375 100.90625 329.660156 98.964844 340.972656 97.902344 C 352.46875 96.84375 364.136719 96.488281 375.804688 97.371094 C 381.640625 97.726562 386.0625 102.851562 385.707031 108.683594 C 385.355469 114.515625 380.226562 118.933594 374.390625 118.578125 C 363.960938 117.871094 353.527344 118.050781 343.097656 119.109375 C 332.839844 120.167969 322.761719 121.9375 312.859375 124.585938 C 311.976562 124.585938 311.09375 124.765625 310.03125 124.765625 Z M 310.03125 124.765625 "></path><path style=" stroke:none;fill-rule:nonzero;fill-opacity:1;" d="M 359.1875 117.871094 C 358.65625 117.871094 357.949219 117.871094 357.417969 117.695312 C 351.582031 116.636719 347.871094 111.332031 348.753906 105.5 C 349.285156 102.144531 352.46875 72.984375 311.445312 66.445312 C 263.53125 58.847656 252.921875 59.730469 252.570312 59.90625 C 253.097656 59.90625 253.277344 59.730469 253.277344 59.730469 L 248.679688 39.054688 C 251.859375 38.347656 264.769531 37.640625 314.628906 45.59375 C 335.316406 48.953125 350.699219 57.257812 360.070312 70.511719 C 372.800781 88.359375 369.617188 108.328125 369.441406 109.214844 C 368.734375 114.339844 364.136719 117.871094 359.1875 117.871094 Z M 359.1875 117.871094 "></path><path style=" stroke:none;fill-rule:nonzero;fill-opacity:1;" d="M 599.121094 750 C 598.589844 750 598.058594 750 597.527344 749.824219 C 578.257812 746.996094 561.105469 740.457031 546.429688 730.207031 C 523.796875 714.300781 507 689.738281 498.160156 659.164062 C 489.671875 629.652344 488.613281 595.722656 495.507812 561.261719 C 496.570312 555.429688 502.226562 551.71875 507.886719 552.957031 C 513.71875 554.015625 517.433594 559.671875 516.195312 565.328125 C 503.816406 628.238281 520.261719 686.203125 558.453125 712.710938 C 570.476562 721.019531 584.621094 726.496094 600.535156 728.792969 C 606.367188 729.675781 610.4375 734.980469 609.550781 740.808594 C 608.84375 746.289062 604.246094 750 599.121094 750 Z M 599.121094 750 "></path><path style=" stroke:none;fill-rule:nonzero;fill-opacity:1;" d="M 375.097656 634.425781 C 364.136719 634.425781 353.175781 632.65625 342.566406 629.125 C 307.203125 617.460938 275.730469 599.609375 249.210938 575.753906 C 142.0625 479.265625 161.332031 327.640625 163.984375 310.675781 C 164.871094 304.84375 170.351562 300.953125 176.007812 301.835938 C 181.84375 302.722656 185.734375 308.199219 184.847656 313.855469 C 182.375 329.757812 164.339844 470.960938 263.355469 560.027344 C 287.753906 581.9375 316.574219 598.375 349.109375 609.152344 C 366.082031 614.808594 384.117188 614.808594 401.089844 609.152344 C 433.625 598.550781 462.445312 581.9375 486.84375 560.027344 C 585.859375 470.960938 567.648438 329.757812 565.347656 313.855469 C 564.464844 308.023438 568.53125 302.722656 574.1875 301.835938 C 580.023438 300.953125 585.328125 305.019531 586.210938 310.675781 C 588.863281 327.640625 608.136719 479.265625 500.988281 575.753906 C 474.46875 599.609375 442.996094 617.636719 407.632812 629.125 C 397.023438 632.65625 386.0625 634.425781 375.097656 634.425781 Z M 375.097656 634.425781 "></path><path style=" stroke:none;fill-rule:nonzero;fill-opacity:1;" d="M 569.0625 449.398438 C 564.109375 449.398438 559.691406 445.863281 558.628906 440.917969 C 557.390625 435.261719 561.105469 429.605469 566.941406 428.371094 C 575.957031 426.601562 583.558594 423.066406 589.570312 418.121094 C 616.09375 396.382812 618.390625 343.191406 595.054688 285.933594 C 592.929688 280.453125 595.40625 274.269531 600.886719 272.148438 C 606.367188 270.027344 612.558594 272.503906 614.679688 277.980469 C 641.90625 344.957031 637.3125 406.457031 603.007812 434.554688 C 594.347656 441.800781 583.558594 446.570312 571.183594 449.046875 C 570.476562 449.398438 569.769531 449.398438 569.0625 449.398438 Z M 569.0625 449.398438 "></path><path style=" stroke:none;fill-rule:nonzero;fill-opacity:1;" d="M 469.871094 394.792969 C 464.742188 394.792969 459.613281 394.261719 454.132812 393.027344 C 442.464844 390.375 431.503906 384.542969 422.132812 376.238281 C 417.710938 372.347656 417.355469 365.632812 421.246094 361.214844 C 425.136719 356.796875 431.855469 356.445312 436.277344 360.332031 C 442.816406 366.339844 450.773438 370.40625 458.90625 372.347656 C 482.777344 377.828125 502.933594 362.984375 506.648438 359.980469 C 511.246094 356.269531 517.964844 356.972656 521.5 361.570312 C 525.210938 366.164062 524.503906 372.878906 519.90625 376.414062 C 513.894531 381.363281 494.800781 394.792969 469.871094 394.792969 Z M 469.871094 394.792969 "></path><path style=" stroke:none;fill-rule:nonzero;fill-opacity:1;" d="M 378.105469 484.214844 C 376.867188 484.214844 375.628906 484.214844 374.390625 484.035156 C 368.558594 483.683594 364.136719 478.558594 364.492188 472.726562 C 364.84375 466.894531 369.972656 462.476562 375.804688 462.828125 C 379.695312 463.183594 383.410156 462.652344 387.121094 461.417969 C 392.78125 459.472656 396.847656 456.292969 399.144531 453.816406 C 403.210938 449.574219 409.929688 449.574219 414.175781 453.640625 C 418.417969 457.703125 418.417969 464.421875 414.351562 468.660156 C 408.691406 474.492188 401.445312 479.089844 393.839844 481.5625 C 388.714844 483.507812 383.410156 484.214844 378.105469 484.214844 Z M 378.105469 484.214844 "></path><path style=" stroke:none;fill-rule:nonzero;fill-opacity:1;" d="M 380.757812 541.46875 C 378.457031 541.46875 376.160156 541.292969 373.863281 541.117188 C 368.027344 540.410156 363.78125 535.285156 364.492188 529.453125 C 365.199219 523.621094 370.324219 519.378906 376.160156 520.085938 C 380.933594 520.617188 385.882812 520.265625 390.660156 519.203125 C 396.316406 517.964844 401.445312 515.492188 406.21875 512.136719 C 410.992188 508.777344 417.535156 509.835938 421.070312 514.609375 C 424.429688 519.378906 423.367188 525.917969 418.59375 529.453125 C 411.523438 534.578125 403.742188 538.113281 395.433594 540.054688 C 390.660156 540.941406 385.707031 541.46875 380.757812 541.46875 Z M 380.757812 541.46875 "></path><path style=" stroke:none;fill-rule:nonzero;fill-opacity:1;" d="M 564.109375 320.921875 C 563.050781 320.921875 561.988281 320.921875 560.929688 320.746094 C 551.910156 319.863281 543.601562 315.269531 538.121094 308.023438 C 529.457031 296.714844 529.101562 281.160156 537.234375 269.5 L 538.296875 268.085938 L 513.367188 289.644531 C 506.292969 295.828125 496.921875 298.65625 487.550781 297.773438 C 478.179688 296.714844 469.695312 291.941406 464.035156 284.34375 C 453.78125 270.734375 455.371094 251.648438 467.394531 239.808594 L 550.496094 158.695312 C 554.738281 154.628906 561.457031 154.628906 565.527344 158.871094 C 569.59375 163.113281 569.59375 169.828125 565.347656 173.890625 L 482.246094 255.007812 C 477.648438 259.425781 477.121094 266.671875 481.007812 271.796875 C 483.132812 274.621094 486.3125 276.390625 489.851562 276.742188 C 493.386719 277.097656 496.746094 276.035156 499.574219 273.738281 L 588.511719 196.867188 C 592.578125 193.332031 598.589844 193.507812 602.480469 197.042969 C 606.367188 200.578125 607.078125 206.585938 604.070312 211.003906 L 554.738281 281.867188 C 551.910156 285.933594 551.910156 291.410156 555.09375 295.476562 C 557.039062 298.125 559.867188 299.71875 563.226562 299.894531 C 566.410156 300.246094 569.59375 299.1875 572.066406 297.066406 L 611.320312 262.429688 C 631.300781 244.933594 644.914062 221.960938 650.75 196.160156 L 674.972656 90.480469 C 675.324219 88.714844 676.210938 87.121094 677.449219 85.710938 L 716.167969 42.589844 C 720.058594 38.171875 726.777344 37.816406 731.199219 41.707031 C 735.617188 45.59375 735.972656 52.308594 732.082031 56.726562 L 695.304688 97.902344 L 671.613281 200.929688 C 664.71875 231.148438 648.804688 257.835938 625.464844 278.335938 L 586.210938 312.972656 C 579.847656 318.097656 572.066406 320.921875 564.109375 320.921875 Z M 564.109375 320.921875 "></path><path style=" stroke:none;fill-rule:nonzero;fill-opacity:1;" d="M 455.726562 263.84375 C 453.601562 263.84375 451.304688 263.667969 449.183594 263.3125 C 438.398438 261.367188 428.851562 254.832031 423.367188 245.289062 C 416.121094 232.5625 416.828125 217.1875 424.960938 205.347656 C 424.960938 205.347656 424.78125 205.347656 424.78125 205.347656 C 415.058594 205.347656 405.332031 201.460938 398.4375 193.683594 C 386.414062 180.429688 386.238281 160.285156 397.90625 146.675781 L 473.761719 58.671875 C 495.152344 33.753906 526.273438 18.554688 558.984375 16.613281 L 570.828125 15.90625 C 577.726562 15.550781 584.445312 13.960938 590.808594 11.308594 L 612.558594 2.296875 C 618.039062 0 624.226562 2.652344 626.347656 7.953125 C 628.648438 13.429688 625.996094 19.617188 620.691406 21.738281 L 598.941406 30.75 C 590.457031 34.285156 581.261719 36.40625 572.066406 36.933594 L 560.222656 37.640625 C 533.167969 39.230469 507.53125 51.777344 489.851562 72.277344 L 413.996094 160.636719 C 409.222656 166.117188 409.402344 174.246094 414.175781 179.546875 C 419.480469 185.378906 428.496094 185.910156 434.332031 180.609375 L 501.695312 120.875 C 505.941406 117.164062 512.304688 117.34375 516.371094 121.40625 C 520.261719 125.472656 520.4375 131.832031 516.726562 136.074219 L 444.054688 215.953125 C 439.28125 221.078125 438.574219 228.675781 442.109375 234.859375 C 444.410156 238.925781 448.476562 241.753906 453.25 242.636719 C 457.847656 243.519531 462.621094 242.285156 466.332031 239.101562 L 481.363281 226.554688 C 485.785156 222.84375 492.503906 223.375 496.390625 227.96875 C 500.105469 232.386719 499.574219 239.101562 494.976562 242.988281 L 479.949219 255.539062 C 472.875 260.839844 464.390625 263.84375 455.726562 263.84375 Z M 455.726562 263.84375 "></path><path style=" stroke:none;fill-rule:nonzero;fill-opacity:1;" d="M 440.164062 124.765625 C 439.28125 124.765625 438.398438 124.585938 437.511719 124.410156 C 427.613281 121.761719 417.355469 119.992188 407.277344 118.933594 C 396.847656 117.871094 386.414062 117.695312 375.984375 118.402344 C 370.148438 118.757812 365.019531 114.339844 364.667969 108.507812 C 364.3125 102.675781 368.734375 97.550781 374.570312 97.195312 C 386.0625 96.488281 397.730469 96.664062 409.402344 97.726562 C 420.714844 98.785156 432.03125 100.90625 442.996094 103.734375 C 448.652344 105.324219 452.011719 110.980469 450.597656 116.636719 C 449.007812 121.582031 444.761719 124.765625 440.164062 124.765625 Z M 440.164062 124.765625 "></path><path style=" stroke:none;fill-rule:nonzero;fill-opacity:1;" d="M 391.011719 118.050781 C 385.882812 118.050781 381.464844 114.339844 380.582031 109.214844 C 380.402344 108.328125 377.222656 88.359375 389.953125 70.511719 C 399.320312 57.257812 414.703125 48.953125 435.390625 45.59375 C 485.429688 37.640625 498.160156 38.347656 501.34375 39.054688 L 496.746094 59.730469 C 496.746094 59.730469 496.921875 59.730469 497.453125 59.90625 C 497.097656 59.90625 486.492188 58.847656 438.574219 66.445312 C 397.554688 72.984375 400.914062 102.144531 401.265625 105.5 C 402.328125 111.332031 398.4375 116.636719 392.601562 117.695312 C 392.25 117.871094 391.71875 118.050781 391.011719 118.050781 Z M 391.011719 118.050781 "></path></g></svg>