<svg xmlns="http://www.w3.org/2000/svg" xmlns:xlink="http://www.w3.org/1999/xlink" width="1000" zoomAndPan="magnify" viewBox="0 0 750 749.999995" height="1000" preserveAspectRatio="xMidYMid meet"><defs><clipPath id="68e31e276d"><path d="M 63.75 0 L 686.25 0 L 686.25 750 L 63.75 750 Z M 63.75 0 "></path></clipPath></defs><g id="15235f34e8"><path style=" stroke:none;fill-rule:nonzero;fill-opacity:1;" d="M 374.921875 533.679688 C 343.328125 533.679688 317.765625 559.242188 317.765625 590.835938 C 317.765625 622.429688 343.328125 647.988281 374.921875 647.988281 C 406.515625 647.988281 432.074219 622.429688 432.074219 590.835938 C 432.074219 559.242188 406.515625 533.679688 374.921875 533.679688 Z M 374.921875 635.289062 C 352.535156 635.289062 333.960938 618.777344 330.945312 597.183594 L 349.519531 597.183594 C 353.011719 597.183594 355.871094 594.328125 355.871094 590.835938 C 355.871094 587.34375 353.011719 584.484375 349.519531 584.484375 L 330.945312 584.484375 C 333.960938 562.894531 352.535156 546.382812 374.921875 546.382812 C 399.371094 546.382812 419.375 566.386719 419.375 590.835938 C 419.375 615.285156 399.371094 635.289062 374.921875 635.289062 Z M 374.921875 635.289062 "></path><path style=" stroke:none;fill-rule:nonzero;fill-opacity:1;" d="M 374.921875 495.578125 C 322.371094 495.578125 279.664062 538.285156 279.664062 590.835938 C 279.664062 594.328125 282.523438 597.183594 286.015625 597.183594 C 289.507812 597.183594 292.363281 594.328125 292.363281 590.835938 C 292.363281 545.269531 329.355469 508.28125 374.921875 508.28125 C 420.484375 508.28125 457.476562 545.269531 457.476562 590.835938 C 457.476562 612.585938 449.0625 633.066406 433.820312 648.625 C 431.4375 651.164062 431.4375 655.132812 433.980469 657.671875 C 435.25 658.941406 436.835938 659.417969 438.425781 659.417969 C 440.011719 659.417969 441.757812 658.785156 443.027344 657.515625 C 460.652344 639.574219 470.175781 615.917969 470.175781 590.835938 C 470.175781 538.285156 427.46875 495.578125 374.921875 495.578125 Z M 374.921875 495.578125 "></path><path style=" stroke:none;fill-rule:nonzero;fill-opacity:1;" d="M 209.808594 584.484375 C 192.347656 584.484375 178.058594 598.773438 178.058594 616.238281 C 178.058594 633.699219 192.347656 647.988281 209.808594 647.988281 C 227.273438 647.988281 241.5625 633.699219 241.5625 616.238281 C 241.5625 598.773438 227.273438 584.484375 209.808594 584.484375 Z M 209.808594 635.289062 C 199.332031 635.289062 190.757812 626.714844 190.757812 616.238281 C 190.757812 605.757812 199.332031 597.183594 209.808594 597.183594 C 220.289062 597.183594 228.859375 605.757812 228.859375 616.238281 C 228.859375 626.714844 220.289062 635.289062 209.808594 635.289062 Z M 209.808594 635.289062 "></path><g clip-rule="nonzero" clip-path="url(#68e31e276d)"><path style=" stroke:none;fill-rule:nonzero;fill-opacity:1;" d="M 670.691406 330.46875 L 430.011719 330.46875 L 422.867188 266.011719 C 420.644531 245.214844 419.375 224.257812 419.375 203.460938 L 419.375 97.882812 L 654.496094 90.105469 C 663.070312 89.785156 671.007812 86.292969 676.882812 80.261719 C 682.757812 74.070312 686.089844 66.132812 686.089844 57.558594 C 686.089844 39.9375 672.277344 25.488281 654.496094 25.011719 L 415.246094 17.074219 C 409.847656 6.914062 399.371094 0.246094 387.304688 0.246094 L 362.695312 0.246094 C 351.742188 0.246094 342.058594 5.800781 336.183594 14.214844 C 336.023438 14.214844 335.867188 14.214844 335.546875 14.214844 C 311.734375 14.214844 292.363281 33.585938 292.363281 57.398438 C 292.363281 69.148438 296.96875 80.261719 305.542969 88.515625 C 312.367188 95.183594 321.101562 99.3125 330.46875 100.421875 L 330.46875 203.617188 C 330.46875 224.414062 329.355469 245.371094 326.976562 266.167969 L 319.832031 330.625 L 79.148438 330.625 C 70.734375 330.625 63.75 337.453125 63.75 346.027344 L 63.75 366.03125 C 63.75 373.652344 69.304688 379.84375 76.449219 381.113281 L 76.449219 657.515625 C 76.449219 686.25 98.996094 709.746094 127.253906 711.492188 L 127.253906 719.113281 C 127.253906 735.941406 140.90625 749.753906 157.894531 749.753906 L 592.105469 749.753906 C 608.933594 749.753906 622.746094 736.101562 622.746094 719.113281 L 622.746094 711.492188 C 651.003906 709.746094 673.550781 686.25 673.550781 657.515625 L 673.550781 380.953125 C 680.691406 379.683594 686.25 373.332031 686.25 365.871094 L 686.25 345.867188 C 686.089844 337.292969 679.265625 330.46875 670.691406 330.46875 Z M 654.179688 37.554688 C 664.976562 37.871094 673.390625 46.605469 673.390625 57.398438 C 673.390625 62.640625 671.328125 67.558594 667.832031 71.210938 C 664.183594 74.863281 659.417969 77.085938 654.179688 77.246094 L 419.375 85.183594 L 419.375 32.316406 C 419.375 31.363281 419.375 30.570312 419.214844 29.617188 Z M 314.433594 79.308594 C 308.398438 73.433594 305.066406 65.65625 305.066406 57.398438 C 305.066406 42.160156 316.339844 29.617188 330.945312 27.234375 C 330.625 28.824219 330.46875 30.570312 330.46875 32.316406 L 330.46875 87.5625 C 324.433594 86.453125 318.878906 83.753906 314.433594 79.308594 Z M 339.675781 267.441406 C 342.058594 246.164062 343.167969 224.734375 343.167969 203.617188 L 343.167969 32.316406 C 343.167969 21.679688 351.898438 12.945312 362.539062 12.945312 L 387.144531 12.945312 C 397.78125 12.945312 406.515625 21.679688 406.515625 32.316406 L 406.515625 203.460938 C 406.515625 224.574219 407.625 246.164062 410.007812 267.441406 L 416.992188 330.46875 L 332.371094 330.46875 Z M 591.945312 736.894531 L 157.894531 736.894531 C 148.050781 736.894531 139.953125 728.796875 139.953125 718.953125 L 139.953125 711.492188 L 609.886719 711.492188 L 609.886719 718.953125 C 609.886719 728.796875 601.789062 736.894531 591.945312 736.894531 Z M 619.410156 698.792969 L 130.429688 698.792969 C 107.566406 698.792969 89.152344 680.21875 89.152344 657.515625 L 89.152344 381.269531 L 660.691406 381.269531 L 660.691406 657.515625 C 660.691406 680.21875 642.113281 698.792969 619.410156 698.792969 Z M 673.390625 365.871094 C 673.390625 367.300781 672.121094 368.570312 670.691406 368.570312 L 79.148438 368.570312 C 77.722656 368.570312 76.449219 367.300781 76.449219 365.871094 L 76.449219 345.867188 C 76.449219 344.4375 77.722656 343.167969 79.148438 343.167969 L 670.691406 343.167969 C 672.121094 343.167969 673.390625 344.4375 673.390625 345.867188 Z M 673.390625 365.871094 "></path></g><path style=" stroke:none;fill-rule:nonzero;fill-opacity:1;" d="M 362.21875 139.953125 C 358.726562 139.953125 355.871094 142.8125 355.871094 146.304688 L 355.871094 209.808594 C 355.871094 213.300781 358.726562 216.160156 362.21875 216.160156 C 365.710938 216.160156 368.570312 213.300781 368.570312 209.808594 L 368.570312 146.304688 C 368.570312 142.8125 365.710938 139.953125 362.21875 139.953125 Z M 362.21875 139.953125 "></path><path style=" stroke:none;fill-rule:nonzero;fill-opacity:1;" d="M 387.621094 190.757812 C 384.128906 190.757812 381.269531 193.617188 381.269531 197.109375 L 381.269531 260.613281 C 381.269531 264.105469 384.128906 266.964844 387.621094 266.964844 C 391.113281 266.964844 393.972656 264.105469 393.972656 260.613281 L 393.972656 197.109375 C 393.972656 193.617188 391.113281 190.757812 387.621094 190.757812 Z M 387.621094 190.757812 "></path></g></svg>